HIERARCHY
ROOT hip
{
  OFFSET 5.51535 103.731 -2.80141
  CHANNELS 6 Xposition Yposition Zposition Zrotation Xrotation Yrotation
  JOINT abdomen
  {
    OFFSET 0 -1.186 -1.5018
    CHANNELS 6 Xposition Yposition Zposition Zrotation Xrotation Yrotation
    JOINT abdomen2
    {
      OFFSET 0 9.964 0.2134
      CHANNELS 6 Xposition Yposition Zposition Zrotation Xrotation Yrotation
      JOINT chest
      {
        OFFSET 0 13.134 -3.2573
        CHANNELS 6 Xposition Yposition Zposition Zrotation Xrotation Yrotation
        JOINT neck
        {
          OFFSET 0 20.686 -1.6905
          CHANNELS 6 Xposition Yposition Zposition Zrotation Xrotation Yrotation
          JOINT head
          {
            OFFSET 0 7.23801 -0.1237
            CHANNELS 6 Xposition Yposition Zposition Zrotation Xrotation Yrotation
            End Site
            {
              OFFSET 0 0 0
            }
          }
        }
        JOINT lCollar
        {
          OFFSET 1.7069 20.075 5.0056
          CHANNELS 6 Xposition Yposition Zposition Zrotation Xrotation Yrotation
          JOINT lShldr
          {
            OFFSET 13.6458 -0.0470195 -4.849
            CHANNELS 6 Xposition Yposition Zposition Zrotation Xrotation Yrotation
            JOINT lForeArm
            {
              OFFSET 28.3255 -0.97589 2.2888
              CHANNELS 6 Xposition Yposition Zposition Zrotation Xrotation Yrotation
              JOINT lHand
              {
                OFFSET 22.1583 -0.529998 10.8316
                CHANNELS 6 Xposition Yposition Zposition Zrotation Xrotation Yrotation
                JOINT lThumb1
                {
                  OFFSET 0.786 0.111997 2.5817
                  CHANNELS 6 Xposition Yposition Zposition Zrotation Xrotation Yrotation
                  JOINT lThumb2
                  {
                    OFFSET 0.360097 -0.877999 4.2331
                    CHANNELS 6 Xposition Yposition Zposition Zrotation Xrotation Yrotation
                    JOINT lThumb2_End
                    {
                      OFFSET 1.8127 -1.21601 2.2227
                      CHANNELS 6 Xposition Yposition Zposition Zrotation Xrotation Yrotation
                      End Site
                      {
                        OFFSET 0.0180981 -0.012195 0.0222007
                      }
                    }
                  }
                }
                JOINT lCarpal1
                {
                  OFFSET 0.9571 1.114 1.7695
                  CHANNELS 6 Xposition Yposition Zposition Zrotation Xrotation Yrotation
                  JOINT lIndex1
                  {
                    OFFSET 4.12461 0.486992 4.1451
                    CHANNELS 6 Xposition Yposition Zposition Zrotation Xrotation Yrotation
                    JOINT lIndex2
                    {
                      OFFSET 3.4052 -1.45401 2.7682
                      CHANNELS 6 Xposition Yposition Zposition Zrotation Xrotation Yrotation
                      JOINT lIndex2_End
                      {
                        OFFSET 1.45309 -1.79499 1.2713
                        CHANNELS 6 Xposition Yposition Zposition Zrotation Xrotation Yrotation
                        End Site
                        {
                          OFFSET 0.0144979 -0.0179083 0.0126995
                        }
                      }
                    }
                  }
                  JOINT lMid1
                  {
                    OFFSET 5.6954 0.209987 2.1184
                    CHANNELS 6 Xposition Yposition Zposition Zrotation Xrotation Yrotation
                    JOINT lMid2
                    {
                      OFFSET 3.9766 -1.53999 2.3863
                      CHANNELS 6 Xposition Yposition Zposition Zrotation Xrotation Yrotation
                      JOINT lMid2_End
                      {
                        OFFSET 1.4042 -1.926 1.125
                        CHANNELS 6 Xposition Yposition Zposition Zrotation Xrotation Yrotation
                        End Site
                        {
                          OFFSET 0.013999 -0.0193044 0.011301
                        }
                      }
                    }
                  }
                }
                JOINT lCarpal2
                {
                  OFFSET 2.0956 0.66 -0.3894
                  CHANNELS 6 Xposition Yposition Zposition Zrotation Xrotation Yrotation
                  JOINT lRing1
                  {
                    OFFSET 5.0395 -0.090013 2.4971
                    CHANNELS 6 Xposition Yposition Zposition Zrotation Xrotation Yrotation
                    JOINT lRing2
                    {
                      OFFSET 3.7921 -1.55199 1.4806
                      CHANNELS 6 Xposition Yposition Zposition Zrotation Xrotation Yrotation
                      JOINT lRing2_End
                      {
                        OFFSET 1.4655 -1.808 0.9609
                        CHANNELS 6 Xposition Yposition Zposition Zrotation Xrotation Yrotation
                        End Site
                        {
                          OFFSET 0.0147015 -0.0181014 0.00959957
                        }
                      }
                    }
                  }
                  JOINT lPinky1
                  {
                    OFFSET 4.9141 -1.269 0.3591
                    CHANNELS 6 Xposition Yposition Zposition Zrotation Xrotation Yrotation
                    JOINT lPinky2
                    {
                      OFFSET 3.1477 -1.685 0.8462
                      CHANNELS 6 Xposition Yposition Zposition Zrotation Xrotation Yrotation
                      JOINT lPinky2_End
                      {
                        OFFSET 0.805498 -1.58501 0.795499
                        CHANNELS 6 Xposition Yposition Zposition Zrotation Xrotation Yrotation
                        End Site
                        {
                          OFFSET 0.00809703 -0.0157944 0.00799848
                        }
                      }
                    }
                  }
                }
              }
            }
          }
        }
        JOINT rCollar
        {
          OFFSET -1.7069 20.075 5.0056
          CHANNELS 6 Xposition Yposition Zposition Zrotation Xrotation Yrotation
          JOINT rShldr
          {
            OFFSET -13.6458 -0.0470107 -4.849
            CHANNELS 6 Xposition Yposition Zposition Zrotation Xrotation Yrotation
            JOINT rForeArm
            {
              OFFSET -28.3255 -0.975895 2.2888
              CHANNELS 6 Xposition Yposition Zposition Zrotation Xrotation Yrotation
              JOINT rHand
              {
                OFFSET -22.1583 -0.530007 10.8316
                CHANNELS 6 Xposition Yposition Zposition Zrotation Xrotation Yrotation
                JOINT rThumb1
                {
                  OFFSET -0.785997 0.112005 2.5817
                  CHANNELS 6 Xposition Yposition Zposition Zrotation Xrotation Yrotation
                  JOINT rThumb2
                  {
                    OFFSET -0.360106 -0.877994 4.2331
                    CHANNELS 6 Xposition Yposition Zposition Zrotation Xrotation Yrotation
                    JOINT rThumb2_End
                    {
                      OFFSET -1.8127 -1.216 2.2227
                      CHANNELS 6 Xposition Yposition Zposition Zrotation Xrotation Yrotation
                      End Site
                      {
                        OFFSET -0.0180972 -0.0121973 0.0222005
                      }
                    }
                  }
                }
                JOINT rCarpal1
                {
                  OFFSET -0.9571 1.114 1.7695
                  CHANNELS 6 Xposition Yposition Zposition Zrotation Xrotation Yrotation
                  JOINT rIndex1
                  {
                    OFFSET -4.1246 0.487011 4.1451
                    CHANNELS 6 Xposition Yposition Zposition Zrotation Xrotation Yrotation
                    JOINT rIndex2
                    {
                      OFFSET -3.4052 -1.45401 2.7682
                      CHANNELS 6 Xposition Yposition Zposition Zrotation Xrotation Yrotation
                      JOINT rIndex2_End
                      {
                        OFFSET -1.4531 -1.795 1.2713
                        CHANNELS 6 Xposition Yposition Zposition Zrotation Xrotation Yrotation
                        End Site
                        {
                          OFFSET -0.0145077 -0.0180048 0.0127017
                        }
                      }
                    }
                  }
                  JOINT rMid1
                  {
                    OFFSET -5.6954 0.210002 2.1184
                    CHANNELS 6 Xposition Yposition Zposition Zrotation Xrotation Yrotation
                    JOINT rMid2
                    {
                      OFFSET -3.9766 -1.54 2.3863
                      CHANNELS 6 Xposition Yposition Zposition Zrotation Xrotation Yrotation
                      JOINT rMid2_End
                      {
                        OFFSET -1.4042 -1.926 1.125
                        CHANNELS 6 Xposition Yposition Zposition Zrotation Xrotation Yrotation
                        End Site
                        {
                          OFFSET -0.0139948 -0.0192916 0.0112994
                        }
                      }
                    }
                  }
                }
                JOINT rCarpal2
                {
                  OFFSET -2.0956 0.66 -0.3894
                  CHANNELS 6 Xposition Yposition Zposition Zrotation Xrotation Yrotation
                  JOINT rRing1
                  {
                    OFFSET -5.03951 -0.0899879 2.4971
                    CHANNELS 6 Xposition Yposition Zposition Zrotation Xrotation Yrotation
                    JOINT rRing2
                    {
                      OFFSET -3.7921 -1.55201 1.4806
                      CHANNELS 6 Xposition Yposition Zposition Zrotation Xrotation Yrotation
                      JOINT rRing2_End
                      {
                        OFFSET -1.4655 -1.808 0.960901
                        CHANNELS 6 Xposition Yposition Zposition Zrotation Xrotation Yrotation
                        End Site
                        {
                          OFFSET -0.0146934 -0.0180999 0.00959832
                        }
                      }
                    }
                  }
                  JOINT rPinky1
                  {
                    OFFSET -4.91411 -1.26899 0.359202
                    CHANNELS 6 Xposition Yposition Zposition Zrotation Xrotation Yrotation
                    JOINT rPinky2
                    {
                      OFFSET -3.14769 -1.68501 0.846199
                      CHANNELS 6 Xposition Yposition Zposition Zrotation Xrotation Yrotation
                      JOINT rPinky2_End
                      {
                        OFFSET -0.805498 -1.585 0.7955
                        CHANNELS 6 Xposition Yposition Zposition Zrotation Xrotation Yrotation
                        End Site
                        {
                          OFFSET -0.00810035 -0.0158035 0.00800029
                        }
                      }
                    }
                  }
                }
              }
            }
          }
        }
      }
    }
  }
  JOINT lThigh
  {
    OFFSET 8.367 -8.2066 0.5982
    CHANNELS 6 Xposition Yposition Zposition Zrotation Xrotation Yrotation
    JOINT lShin
    {
      OFFSET 2.1923 -43.463 -0.4932
      CHANNELS 6 Xposition Yposition Zposition Zrotation Xrotation Yrotation
      JOINT lFoot
      {
        OFFSET 0.733301 -45.8593 -2.6451
        CHANNELS 6 Xposition Yposition Zposition Zrotation Xrotation Yrotation
        End Site
        {
          OFFSET 2.6618 -4.2699 12.3931
        }
      }
    }
  }
  JOINT rThigh
  {
    OFFSET -8.367 -8.2066 0.5982
    CHANNELS 6 Xposition Yposition Zposition Zrotation Xrotation Yrotation
    JOINT rShin
    {
      OFFSET -2.1923 -43.463 -0.4931
      CHANNELS 6 Xposition Yposition Zposition Zrotation Xrotation Yrotation
      JOINT rFoot
      {
        OFFSET -0.733299 -45.8593 -2.6451
        CHANNELS 6 Xposition Yposition Zposition Zrotation Xrotation Yrotation
        End Site
        {
          OFFSET -2.6618 -4.2699 12.3931
        }
      }
    }
  }
}
MOTION
Frames:	4
Frame Time:	0.0333333
5.47708 100.495 21.3349 -2.32294e-005 22.9876 -5.73147e-006 5.46414e-008 -1.186 -1.5018 0.461209 -0.00366198 0.088738 -1.38555e-007 9.964 0.2134 0.922423 -0.00662576 0.177503 1.45309e-007 13.134 -3.2573 0.922423 -0.00661798 0.177503 1.71261e-007 20.686 -1.6905 5.36262 -6.61094 1.10653 -9.39301e-006 7.23801 -0.123703 5.35127 -6.66536 0.482582 1.7069 20.075 5.00559 2.74965 3.42237 12.3256 13.6458 -0.0470188 -4.849 -74.6287 13.1949 17.333 28.3255 -0.975894 2.28879 -58.3209 62.1981 1.55922 22.1583 -0.529997 10.8316 10.9275 19.1951 -13.2346 0.786005 0.111998 2.5817 2.84341 2.10895 10.0596 0.360099 -0.877997 4.2331 -1.0907 -0.111771 -1.99645 1.8127 -1.21601 2.2227 2.43411 0.3894 4.48058 0.9571 1.114 1.7695 1.27222e-014 -6.36111e-015 3.18055e-015 4.1246 0.486994 4.1451 -13.8369 8.62938 14.1278 3.4052 -1.45401 2.7682 -9.29988 3.74253 4.06003 1.4531 -1.79499 1.2713 -11.5242 4.52089 5.09916 5.69541 0.20999 2.1184 -8.92761 7.19315 5.49517 3.9766 -1.53999 2.3863 -13.1421 5.65841 6.01042 1.4042 -1.926 1.125 -9.10274 4.09741 4.05596 2.0956 0.66 -0.3894 1.27222e-014 -6.36111e-015 3.18055e-015 5.0395 -0.0900145 2.4971 -8.28258 3.49761 3.63814 3.7921 -1.55199 1.4806 -12.5204 5.81176 6.4466 1.4655 -1.808 0.960898 -8.56757 4.16581 4.3128 4.9141 -1.269 0.359101 -9.11139 3.43949 2.58352 3.1477 -1.685 0.846199 -10.3412 5.30408 5.2164 0.805499 -1.585 0.795499 -8.68403 4.53619 4.33417 -1.7069 20.075 5.0056 -2.75288 2.48177 -12.295 -13.6458 -0.0470187 -4.849 65.9523 1.59627 -27.048 -28.3255 -0.975893 2.2888 64.4325 65.8492 -8.58448 -22.1583 -0.530011 10.8316 -28.3879 33.3922 4.92593 -0.786001 0.112005 2.5817 -7.24626 0.768296 -12.235 -0.360103 -0.877995 4.2331 -0.219276 0.19207 -0.668661 -1.8127 -1.216 2.2227 -2.30916 2.27742 -7.40712 -0.9571 1.114 1.7695 3.18055e-015 0 3.18055e-015 -4.12461 0.487012 4.1451 4.84745 6.977 -6.84392 -3.4052 -1.45401 2.7682 -1.24163 -0.416332 0.170061 -1.4531 -1.795 1.2713 1.11731 0.371285 -0.160531 -5.69541 0.210004 2.1184 -6.10569 0.998055 0.751155 -3.9766 -1.54 2.3863 -2.03902 -0.77325 0.266587 -1.4042 -1.926 1.125 -6.30276 -2.4216 0.735537 -2.0956 0.66 -0.3894 3.18055e-015 0 3.18055e-015 -5.03951 -0.0899877 2.4971 -10.6279 -5.26871 1.68781 -3.79209 -1.55201 1.4806 -6.04278 -2.57069 0.958945 -1.4655 -1.808 0.960901 -10.2278 -4.4112 1.46481 -4.91411 -1.26899 0.359201 -9.70148 -6.43022 2.33478 -3.14769 -1.68501 0.846198 -8.15635 -3.74014 1.11011 -0.805498 -1.585 0.7955 -9.91895 -4.56883 1.27991 8.36701 -8.2066 0.598202 -9.52422 -30.6761 -27.7935 2.1923 -43.463 -0.493199 -0.821057 26.8861 -1.16457 0.733302 -45.8593 -2.64509 5.67852 -16.0817 -0.948717 -8.36701 -8.20661 0.598205 0.239204 -26.5348 31.9212 -2.1923 -43.4631 -0.4931 3.71779 21.3997 1.40833 -0.733302 -45.8594 -2.6451 0.813649 -18.4814 3.97754 
5.55755 100.774 21.1969 -0.637072 20.862 0.168424 -2.06524e-007 -1.186 -1.5018 0.599363 0.262303 0.152957 1.54392e-007 9.96399 0.2134 1.19804 0.526213 0.303167 1.42904e-007 13.134 -3.2573 1.19804 0.526218 0.303167 1.62718e-007 20.686 -1.6905 4.71662 -5.37964 0.244653 -7.52852e-006 7.238 -0.123699 4.63522 -5.58248 -0.433831 1.7069 20.075 5.0056 2.74905 3.42233 12.3255 13.6458 -0.04702 -4.849 -74.947 14.2214 15.3426 28.3255 -0.975904 2.28879 -58.502 62.2721 1.76281 22.1583 -0.529995 10.8316 9.80989 16.6878 -12.2038 0.786003 0.111997 2.5817 2.84341 2.10893 10.0596 0.360097 -0.878 4.2331 -1.0907 -0.11176 -1.99646 1.8127 -1.21601 2.2227 2.4341 0.389402 4.48059 0.9571 1.114 1.7695 4.77083e-015 -6.36111e-015 3.18055e-015 4.12461 0.486994 4.1451 -13.8369 8.62935 14.1278 3.4052 -1.45401 2.7682 -9.29986 3.74255 4.06003 1.4531 -1.79499 1.2713 -11.5242 4.52088 5.09914 5.6954 0.209986 2.1184 -8.92763 7.19314 5.49517 3.9766 -1.53999 2.3863 -13.1421 5.65841 6.01043 1.4042 -1.926 1.125 -9.10274 4.09742 4.05597 2.0956 0.66 -0.3894 4.77083e-015 -6.36111e-015 3.18055e-015 5.03951 -0.0900108 2.4971 -8.2826 3.49761 3.63814 3.7921 -1.55199 1.4806 -12.5204 5.81175 6.44661 1.4655 -1.808 0.960901 -8.56757 4.16581 4.31281 4.9141 -1.269 0.359101 -9.11167 3.43921 2.58343 3.1477 -1.685 0.8462 -10.3412 5.30405 5.21639 0.805497 -1.58501 0.795501 -8.6836 4.5366 4.33414 -1.7069 20.075 5.0056 -2.78917 2.50401 -12.2769 -13.6458 -0.0470188 -4.849 65.9671 2.2317 -25.262 -28.3255 -0.975897 2.28879 65.6438 66.2225 -9.08528 -22.1583 -0.530014 10.8316 -26.6195 31.1044 2.5434 -0.786003 0.112006 2.5817 -7.24624 0.76829 -12.235 -0.360107 -0.877992 4.2331 -0.219299 0.192075 -0.668662 -1.81269 -1.216 2.2227 -2.30916 2.27745 -7.40713 -0.9571 1.114 1.7695 -1.59028e-015 3.18055e-015 4.77083e-015 -4.1246 0.487011 4.1451 4.84745 6.97699 -6.8439 -3.4052 -1.45401 2.7682 -1.24163 -0.416327 0.170054 -1.4531 -1.795 1.2713 1.11731 0.371285 -0.16053 -5.6954 0.210002 2.1184 -6.10569 0.998037 0.751153 -3.9766 -1.54 2.3863 -2.03902 -0.773251 0.266578 -1.4042 -1.926 1.125 -6.30276 -2.42159 0.735544 -2.0956 0.66 -0.3894 -1.59028e-015 3.18055e-015 4.77083e-015 -5.03951 -0.0899861 2.4971 -10.6279 -5.26871 1.68781 -3.7921 -1.55201 1.4806 -6.04277 -2.57069 0.958952 -1.4655 -1.808 0.960901 -10.2278 -4.41119 1.46482 -4.91411 -1.26899 0.359202 -9.70149 -6.43022 2.33478 -3.1477 -1.68501 0.846198 -8.15634 -3.74015 1.11012 -0.805501 -1.585 0.7955 -9.91899 -4.56882 1.2799 8.367 -8.20661 0.598202 -8.51882 -28.2302 -27.1708 2.1923 -43.463 -0.493201 -0.786406 26.2652 -1.22172 0.733302 -45.8593 -2.6451 5.68631 -15.854 -0.989119 -8.36702 -8.2066 0.598198 0.412473 -23.457 31.5715 -2.1923 -43.463 -0.493099 3.43501 19.5705 1.83158 -0.733298 -45.8593 -2.6451 0.816127 -17.6508 4.05221 
5.70618 101.063 21.1126 -1.46788 18.0801 0.104631 -5.8721e-008 -1.186 -1.5018 0.792717 0.615309 0.202353 1.63026e-007 9.964 0.2134 1.5834 1.23332 0.396207 -2.23489e-007 13.134 -3.2573 1.5834 1.23334 0.396207 4.0369e-006 20.6863 -1.69053 3.80899 -3.8225 -1.33541 -8.45961e-006 7.23801 -0.123687 3.58505 -4.36628 -2.09355 1.7069 20.075 5.0056 2.74894 3.42223 12.3255 13.6458 -0.0470162 -4.84899 -75.4908 15.1366 13.263 28.3255 -0.975908 2.28879 -58.8208 62.3954 2.31953 22.1583 -0.529994 10.8316 8.70987 13.653 -11.2598 0.786004 0.111997 2.5817 2.84339 2.10892 10.0596 0.360098 -0.878 4.2331 -1.09069 -0.111763 -1.99645 1.8127 -1.21601 2.2227 2.4341 0.389395 4.48058 0.9571 1.114 1.7695 8.82781e-032 3.18055e-015 -1.59028e-015 4.1246 0.486989 4.1451 -13.8369 8.62935 14.1278 3.4052 -1.45401 2.7682 -9.29987 3.74254 4.06003 1.4531 -1.79499 1.2713 -11.5242 4.52087 5.09914 5.6954 0.209987 2.1184 -8.92763 7.19314 5.49516 3.9766 -1.53999 2.3863 -13.1421 5.65841 6.01042 1.4042 -1.926 1.125 -9.10275 4.0974 4.05598 2.0956 0.66 -0.3894 8.82781e-032 3.18055e-015 -1.59028e-015 5.03951 -0.0900113 2.4971 -8.2826 3.49761 3.63813 3.7921 -1.55199 1.4806 -12.5204 5.81175 6.44661 1.4655 -1.808 0.960901 -8.56756 4.16581 4.31283 4.9141 -1.269 0.359102 -9.11194 3.43895 2.58332 3.1477 -1.685 0.846198 -10.3412 5.30404 5.21639 0.805497 -1.58501 0.7955 -8.68316 4.53699 4.33411 -1.7069 20.075 5.0056 -2.80692 2.51506 -12.269 -13.6458 -0.0470175 -4.849 65.5123 2.87665 -23.0579 -28.3255 -0.9759 2.2888 68.0584 66.88 -10.5536 -22.1583 -0.530004 10.8316 -24.5647 28.3863 -0.179451 -0.785998 0.112003 2.5817 -7.24624 0.768302 -12.235 -0.360108 -0.877992 4.2331 -0.219302 0.192077 -0.66866 -1.81269 -1.216 2.2227 -2.30916 2.27744 -7.40712 -0.9571 1.114 1.7695 -1.59028e-015 0 1.59028e-015 -4.12461 0.487012 4.1451 4.84744 6.97701 -6.84391 -3.4052 -1.45401 2.7682 -1.24164 -0.416348 0.170069 -1.4531 -1.795 1.2713 1.1173 0.371291 -0.160538 -5.69541 0.210003 2.1184 -6.10571 0.998042 0.751153 -3.9766 -1.54 2.3863 -2.03903 -0.773261 0.266577 -1.4042 -1.926 1.125 -6.30275 -2.4216 0.735558 -2.0956 0.66 -0.3894 -1.59028e-015 0 1.59028e-015 -5.03951 -0.0899863 2.4971 -10.6279 -5.26872 1.68781 -3.7921 -1.55201 1.4806 -6.04278 -2.57068 0.95895 -1.4655 -1.808 0.9609 -10.2278 -4.4112 1.46482 -4.91411 -1.26899 0.359201 -9.70149 -6.43023 2.33478 -3.1477 -1.68501 0.846198 -8.15635 -3.74013 1.11013 -0.8055 -1.585 0.7955 -9.91896 -4.56883 1.2799 8.367 -8.2066 0.5982 -7.31042 -25.0509 -26.4867 2.1923 -43.4631 -0.4932 -0.72065 25.749 -1.12986 0.7333 -45.8594 -2.6451 5.73538 -15.7762 -0.913823 -8.36699 -8.2066 0.598202 0.688215 -19.4614 31.1773 -2.1923 -43.463 -0.493102 3.19965 17.2668 2.56571 -0.7333 -45.8593 -2.6451 0.55298 -16.6208 4.32166 
5.90655 101.338 21.0853 -2.41445 14.9299 -0.185687 7.07725e-008 -1.186 -1.5018 1.01563 1.01286 0.235836 5.43996e-008 9.964 0.213398 2.02754 2.02974 0.453779 1.00855e-007 13.134 -3.2573 2.02755 2.02974 0.453779 -1.7735e-007 20.686 -1.6905 2.74943 -2.04152 -3.41177 -2.07598e-006 7.23801 -0.123701 2.34146 -3.04788 -4.2837 1.7069 20.075 5.0056 2.74918 3.42241 12.3255 13.6458 -0.0470184 -4.849 -76.1848 15.9902 11.2045 28.3255 -0.975888 2.28881 -59.2504 62.5573 3.12336 22.1583 -0.529993 10.8316 7.70566 10.2664 -10.4552 0.786003 0.111997 2.5817 2.84337 2.1089 10.0596 0.360096 -0.877998 4.2331 -1.0907 -0.111766 -1.99645 1.8127 -1.21601 2.2227 2.4341 0.389382 4.48059 0.9571 1.114 1.7695 4.77083e-015 0 6.36111e-015 4.12461 0.486994 4.1451 -13.8369 8.62933 14.1278 3.4052 -1.45401 2.7682 -9.29988 3.74253 4.06003 1.4531 -1.79499 1.2713 -11.5242 4.52085 5.09915 5.6954 0.209986 2.1184 -8.92762 7.19315 5.49516 3.9766 -1.53999 2.3863 -13.1421 5.65839 6.01042 1.4042 -1.926 1.125 -9.10275 4.0974 4.056 2.0956 0.66 -0.3894 4.77083e-015 0 6.36111e-015 5.0395 -0.0900119 2.4971 -8.28259 3.49759 3.63812 3.7921 -1.55199 1.4806 -12.5204 5.81175 6.44662 1.4655 -1.808 0.960901 -8.56756 4.1658 4.31284 4.9141 -1.269 0.359101 -9.11218 3.43867 2.5832 3.1477 -1.685 0.846201 -10.3413 5.30404 5.2164 0.805498 -1.58501 0.7955 -8.68273 4.53739 4.33409 -1.7069 20.075 5.0056 -2.81084 2.51799 -12.2682 -13.6458 -0.0470081 -4.84901 64.6973 3.50569 -20.591 -28.3255 -0.975896 2.28881 71.504 67.6879 -12.8925 -22.1583 -0.530006 10.8316 -22.4707 25.3516 -2.93309 -0.786001 0.112005 2.5817 -7.24625 0.768292 -12.235 -0.360103 -0.877992 4.2331 -0.219318 0.192091 -0.668658 -1.8127 -1.216 2.2227 -2.30917 2.27744 -7.40712 -0.9571 1.114 1.7695 -1.59028e-015 6.36111e-015 -4.77083e-015 -4.12461 0.487011 4.1451 4.84743 6.97703 -6.84389 -3.4052 -1.45401 2.7682 -1.24164 -0.416307 0.170074 -1.4531 -1.795 1.2713 1.1173 0.371291 -0.16054 -5.6954 0.21 2.1184 -6.10569 0.998041 0.751168 -3.9766 -1.54 2.3863 -2.03901 -0.773241 0.266591 -1.4042 -1.926 1.125 -6.30276 -2.42161 0.73554 -2.0956 0.66 -0.3894 -1.59028e-015 6.36111e-015 -4.77083e-015 -5.03951 -0.0899881 2.4971 -10.6279 -5.26871 1.68782 -3.7921 -1.55201 1.4806 -6.04277 -2.57068 0.958949 -1.4655 -1.808 0.960901 -10.2278 -4.41119 1.46484 -4.9141 -1.26899 0.359204 -9.70149 -6.43021 2.33478 -3.14769 -1.68501 0.846198 -8.15635 -3.74013 1.11013 -0.805499 -1.585 0.7955 -9.91898 -4.56881 1.27991 8.36701 -8.2066 0.598196 -6.0559 -21.3983 -25.8669 2.1923 -43.463 -0.4932 -0.621814 25.2765 -0.894927 0.733299 -45.8593 -2.6451 5.81171 -15.7985 -0.728716 -8.36701 -8.20661 0.598199 0.978238 -14.8672 30.7192 -2.1923 -43.4631 -0.493101 2.9871 14.5498 3.50999 -0.7333 -45.8593 -2.6451 0.101562 -15.414 4.72702 
